<svg height="512pt" viewBox="0 0 512 512.00003" width="512pt" xmlns="http://www.w3.org/2000/svg" xmlns:xlink="http://www.w3.org/1999/xlink"><linearGradient id="a" gradientUnits="userSpaceOnUse" x1="117.153194673" x2="439.782603891" y1="127.9440361524" y2="450.5734453704"><stop offset="0" stop-color="#ffb92d"/><stop offset="1" stop-color="#f59500"/></linearGradient><linearGradient id="b"><stop offset="0" stop-color="#be3f45" stop-opacity="0"/><stop offset="1" stop-color="#be3f45"/></linearGradient><linearGradient id="c" gradientUnits="userSpaceOnUse" x1="199.4350433618" x2="29.048999953" xlink:href="#b" y1="319.3436729042" y2="148.9575291032"/><linearGradient id="d"><stop offset="0" stop-color="#8c6239"/><stop offset="1" stop-color="#42210b"/></linearGradient><linearGradient id="e" gradientUnits="userSpaceOnUse" x1="75.2632441244" x2="136.0241172914" xlink:href="#d" y1="195.1718736668" y2="255.9327468338"/><linearGradient id="f" gradientUnits="userSpaceOnUse" x1="282.4747527684" x2="139.0239366196" xlink:href="#b" y1="148.7454003846" y2="5.2945842358"/><linearGradient id="g" gradientUnits="userSpaceOnUse" x1="186.8949532676" x2="227.6740641232" xlink:href="#d" y1="53.1656008838" y2="93.9447117394"/><linearGradient id="h" gradientUnits="userSpaceOnUse" x1="285.519949371" x2="142.0691332222" xlink:href="#b" y1="339.2863826498" y2="195.835566501"/><linearGradient id="i" gradientUnits="userSpaceOnUse" x1="198.2222051936" x2="239.0013160492" xlink:href="#d" y1="251.9885380802" y2="292.767749328"/><linearGradient id="j" gradientUnits="userSpaceOnUse" x1="234.5525360984" x2="118.0159652398" xlink:href="#b" y1="476.419216476" y2="359.8826456174"/><linearGradient id="k" gradientUnits="userSpaceOnUse" x1="137.4932567462" x2="193.791596231" xlink:href="#d" y1="379.3599371238" y2="435.6582766086"/><linearGradient id="l" gradientUnits="userSpaceOnUse" x1="422.9796602004" x2="298.464017678" xlink:href="#b" y1="217.2639804144" y2="92.748337892"/><linearGradient id="m" gradientUnits="userSpaceOnUse" x1="332.0634799584" x2="388.3618194432" xlink:href="#d" y1="126.3478001724" y2="182.6461396572"/><linearGradient id="n" gradientUnits="userSpaceOnUse" x1="380.960304106" x2="311.4120012808" xlink:href="#b" y1="463.5773474286" y2="394.0290446034"/><linearGradient id="o" gradientUnits="userSpaceOnUse" x1="316.645045098" x2="357.4242563458" xlink:href="#d" y1="399.2621888128" y2="440.0412996684"/><linearGradient id="p" gradientUnits="userSpaceOnUse" x1="464.7103887198" x2="367.247231547" xlink:href="#b" y1="357.1770758274" y2="259.7139186546"/><linearGradient id="q" gradientUnits="userSpaceOnUse" x1="367.468094387" x2="434.2487850426" xlink:href="#d" y1="259.9348818868" y2="326.7154721502"/><path d="m511.996094 256c0 141.382812-114.613282 255.996094-255.996094 255.996094-141.800781 0-256-114.195313-256-255.996094 0-141.382812 114.617188-256 256-256 5.382812 0 10.726562.164062 16.027344.492188 14.132812.875 25.242187 12.214843 26.164062 26.34375.011719.195312.023438.386718.039063.582031 1.980469 26.039062 23.710937 46.667969 49.816406 47.390625 7.921875.21875 15.453125-1.351563 22.21875-4.339844 6.511719-2.878906 14.15625-1.246094 18.941406 4.019531 3.890625 4.28125 8.691407 7.71875 14.097657 10.011719 6.414062 2.722656 10.554687 8.894531 10.523437 15.863281v.179688c0 22.269531 18.046875 40.316406 40.300781 40.316406 3.859375 0 7.589844-.542969 11.125-1.554687 9.601563-2.75 19.792969 1.8125 23.925782 10.902343 14.652343 32.246094 22.816406 68.070313 22.816406 105.792969zm0 0" fill="url(#a)"/><path d="m136.234375 188.0625c-8.824219-9.804688-21.609375-15.96875-35.839844-15.96875-26.625 0-48.210937 21.582031-48.210937 48.210938 0 14.226562 6.167968 27.011718 15.96875 35.835937l179.761718 179.761719c8.824219 9.800781 21.609376 15.96875 35.835938 15.96875 26.628906 0 48.210938-21.585938 48.210938-48.210938 0-14.230468-6.164063-27.015625-15.96875-35.839844zm0 0" fill="url(#c)"/><path d="m148.609375 220.304688c0 26.625-21.585937 48.210937-48.214844 48.210937-26.625 0-48.210937-21.585937-48.210937-48.210937 0-26.628907 21.585937-48.210938 48.210937-48.210938 26.628907 0 48.214844 21.582031 48.214844 48.210938zm0 0" fill="url(#e)"/><path d="m228.105469 48.726562c-5.933594-6.769531-14.636719-11.050781-24.34375-11.050781-17.871094 0-32.355469 14.488281-32.355469 32.359375 0 9.707032 4.277344 18.410156 11.050781 24.339844l151.804688 151.804688c5.929687 6.769531 14.632812 11.050781 24.339843 11.050781 17.871094 0 32.359376-14.484375 32.359376-32.355469 0-9.707031-4.28125-18.410156-11.054688-24.34375zm0 0" fill="url(#f)"/><path d="m236.121094 70.035156c0 17.867188-14.488282 32.355469-32.359375 32.355469-17.871094 0-32.355469-14.488281-32.355469-32.355469 0-17.871094 14.484375-32.359375 32.355469-32.359375 17.871093 0 32.359375 14.488281 32.359375 32.359375zm0 0" fill="url(#g)"/><path d="m239.429688 247.550781c-5.929688-6.769531-14.632813-11.050781-24.339844-11.050781-17.871094 0-32.359375 14.484375-32.359375 32.355469 0 9.707031 4.28125 18.410156 11.050781 24.34375l151.804688 151.804687c5.933593 6.769532 14.636718 11.050782 24.34375 11.050782 17.871093 0 32.355468-14.488282 32.355468-32.359376 0-9.707031-4.28125-18.410156-11.050781-24.339843zm0 0" fill="url(#h)"/><path d="m247.449219 268.855469c0 17.871093-14.488281 32.359375-32.359375 32.359375s-32.355469-14.488282-32.355469-32.359375c0-17.871094 14.484375-32.355469 32.355469-32.355469s32.359375 14.484375 32.359375 32.355469zm0 0" fill="url(#i)"/><path d="m193.386719 372.125c-8.152344-8.703125-19.742188-14.148438-32.605469-14.148438-24.671875 0-44.671875 20-44.671875 44.671876 0 12.863281 5.445313 24.453124 14.152344 32.605468l70.820312 70.820313c17.695313 3.867187 36.0625 5.925781 54.917969 5.925781 19.128906 0 37.761719-2.117188 55.695312-6.09375-.800781-11.617188-6.035156-22.011719-14.03125-29.5zm0 0" fill="url(#j)"/><path d="m205.453125 402.648438c0 24.667968-20 44.667968-44.671875 44.667968s-44.671875-20-44.671875-44.667968c0-24.671876 20-44.671876 44.671875-44.671876s44.671875 20 44.671875 44.671876zm0 0" fill="url(#k)"/><path d="m387.957031 119.117188c-8.152343-8.707032-19.742187-14.152344-32.605469-14.152344-24.671874 0-44.671874 20-44.671874 44.671875 0 12.863281 5.445312 24.453125 14.148437 32.605469l104.28125 104.277343c8.148437 8.703125 19.738281 14.152344 32.605469 14.152344 24.671875 0 44.671875-20 44.671875-44.671875 0-12.867188-5.449219-24.457031-14.152344-32.605469zm0 0" fill="url(#l)"/><path d="m400.023438 149.632812c0 24.671876-20 44.671876-44.671876 44.671876-24.671874 0-44.671874-20-44.671874-44.671876 0-24.667968 20-44.667968 44.671874-44.667968 24.671876 0 44.671876 20 44.671876 44.667968zm0 0" fill="url(#m)"/><path d="m357.855469 394.824219c-5.933594-6.769531-14.632813-11.050781-24.34375-11.050781-17.867188 0-32.355469 14.484374-32.355469 32.355468 0 9.707032 4.28125 18.410156 11.050781 24.34375l48.578125 48.578125c.125.140625.261719.273438.390625.414063 20.375-9.195313 39.324219-20.988282 56.445313-34.941406zm0 0" fill="url(#n)"/><path d="m365.871094 416.128906c0 17.871094-14.488282 32.359375-32.359375 32.359375-17.871094 0-32.355469-14.488281-32.355469-32.359375s14.484375-32.355468 32.355469-32.355468c17.871093 0 32.359375 14.484374 32.359375 32.355468zm0 0" fill="url(#o)"/><path d="m503.609375 321.199219-69.847656-69.847657c-9.667969-10.324218-23.410157-16.785156-38.671875-16.785156-29.265625 0-52.988282 23.726563-52.988282 52.992188 0 15.257812 6.460938 29.003906 16.785157 38.671875l93.714843 93.71875c23.683594-28.371094 41.34375-61.941407 51.007813-98.75zm0 0" fill="url(#p)"/><path d="m448.078125 287.558594c0 29.265625-23.722656 52.988281-52.988281 52.988281s-52.988282-23.722656-52.988282-52.988281 23.722657-52.992188 52.988282-52.992188 52.988281 23.726563 52.988281 52.992188zm0 0" fill="url(#q)"/></svg>