<svg width="50" height="50" viewBox="0 0 50 50" fill="none" xmlns="http://www.w3.org/2000/svg">
<path d="M10.5625 19.85C10.5625 11.875 17.025 5.4125 25 5.4125C32.975 5.4125 39.4375 11.875 39.4375 19.85C39.4375 26.9375 27.825 40.8625 25 44.1625C22.175 40.85 10.5625 26.9375 10.5625 19.85ZM8.89999 19.8625C8.89999 28.5125 23.75 45.275 24.375 45.975C24.675 46.3125 25.2 46.35 25.55 46.0375C25.575 46.0125 25.5875 46 25.6125 45.975C26.2375 45.2625 41.0875 28.5125 41.0875 19.8625C41.0875 10.975 33.8875 3.7625 25 3.75C16.1125 3.7625 8.91249 10.9625 8.89999 19.8625Z" fill="url(#paint0_linear)"/>
<path d="M17.925 20.5625C17.925 16.6625 21.0875 13.5 24.9875 13.5C28.8875 13.5 32.05 16.6625 32.05 20.5625C32.05 24.4625 28.8875 27.625 24.9875 27.625C21.0875 27.625 17.925 24.4625 17.925 20.5625ZM16.275 20.5625C16.275 25.375 20.1875 29.2875 25.0125 29.275C29.825 29.275 33.725 25.3625 33.725 20.55C33.7125 15.7375 29.8125 11.825 24.9875 11.825C20.175 11.8375 16.275 15.75 16.275 20.5625Z" fill="url(#paint1_linear)"/>
<defs>
<linearGradient id="paint0_linear" x1="8.89769" y1="25.0019" x2="41.0852" y2="25.0019" gradientUnits="userSpaceOnUse">
<stop stop-color="#3EAC49"/>
<stop offset="1" stop-color="#3C9EA8"/>
</linearGradient>
<linearGradient id="paint1_linear" x1="16.2737" y1="20.5505" x2="33.7237" y2="20.5505" gradientUnits="userSpaceOnUse">
<stop stop-color="#3EAC49"/>
<stop offset="1" stop-color="#3C9EA8"/>
</linearGradient>
</defs>
</svg>
