<svg xmlns="http://www.w3.org/2000/svg" viewBox="0 0 122.3 75.2"><path d="M57.1 69.9c0 .7-.3 1.3-.8 1.9-.6.5-1.2.8-2.1.8h-9.3v-12h9.3c.9 0 1.5.3 2.1.8.6.5.8 1.1.8 1.9v6.6zm1-10.4c-1.1-1-2.4-1.5-3.9-1.5H43.6c-.3 0-.6.1-.8.3-.1.1-.3.2-.4.3-.1.2-.2.4-.2.6v14.6c0 .4.2.7.4.9.2.2.6.4.9.4h10.6c1.5 0 2.9-.5 3.9-1.5 1.1-1 1.7-2.3 1.7-3.8v-6.6c.1-1.4-.5-2.7-1.6-3.7m-28.8 1.2h9.5c.4 0 .7-.1 1.1-.3.3-.2.5-.7.5-1.1 0-.4-.2-.9-.5-1.1-.3-.2-.7-.3-1.1-.3h-9.5c-1.4 0-2.7.5-3.8 1.5-1.1 1-1.7 2.3-1.8 3.8v6.7c.1 1.5.7 2.8 1.8 3.8s2.4 1.5 3.8 1.5h9.5c.4 0 .8-.1 1.1-.3.3-.2.5-.7.5-1.1 0-.4-.2-.9-.5-1.1-.3-.2-.7-.3-1.1-.3h-9.5c-.9 0-1.5-.3-2.1-.8-.6-.6-.8-1.2-.8-1.9V68H35c.4 0 .8-.1 1.1-.3.3-.2.5-.7.5-1v-.1c0-.4-.2-.8-.5-1-.3-.2-.7-.3-1.1-.3h-8.6v-1.7c0-.8.3-1.3.8-1.9.5-.7 1.2-1 2.1-1m-7.4 2.6c0-1.5-.6-2.8-1.7-3.8S17.8 58 16.3 58h-1.1c-1.7 0-3.2.6-4.3 1.9-.4-.5-.9-.9-1.5-1.2-.8-.5-1.8-.7-2.8-.7h-1c-1.5 0-2.8.5-3.9 1.5S0 61.8 0 63.3v10.3c0 .4.1.8.3 1.1.2.3.7.5 1.1.5.4 0 .8-.2 1-.5.2-.3.3-.7.3-1.1V63.3c0-.7.3-1.3.8-1.9.6-.5 1.2-.8 2.1-.8h1c.9 0 1.5.3 2.1.8.6.5.8 1.1.8 1.9v10.3c0 .4.1.8.3 1.1.2.3.7.5 1.1.5.4 0 .8-.2 1-.5.2-.3.3-.7.3-1.1V63.3c0-.7.3-1.3.8-1.9.6-.5 1.2-.8 2.1-.8h1.1c.9 0 1.5.3 2.1.8.6.5.8 1.1.8 1.9v10.3c0 .4.1.8.3 1.1.2.3.7.5 1.1.5.4 0 .8-.2 1-.5.2-.3.3-.7.3-1.1V63.3zm41.2-5.4c-.4 0-.8.2-1.1.5-.2.3-.3.7-.3 1.1v14c0 .4.1.8.3 1.1.2.3.7.5 1.1.5.4 0 .8-.2 1-.5.2-.3.3-.7.3-1.1v-14c0-.4-.1-.7-.3-1.1-.2-.3-.6-.5-1-.5m37 12c0 .7-.3 1.3-.8 1.9-.6.5-1.2.8-2.1.8h-6.6c-.9 0-1.5-.3-2.1-.8-.6-.6-.8-1.1-.8-1.9v-6.6c0-.7.3-1.3.8-1.9.6-.5 1.2-.8 2.1-.8h6.6c.9 0 1.5.3 2.1.8.6.5.8 1.1.8 1.9v6.6zm1-10.4c-1.1-1-2.4-1.5-3.9-1.5h-6.6c-1.5 0-2.9.5-3.9 1.5-1.1 1-1.7 2.3-1.7 3.8v6.6c0 1.5.6 2.8 1.7 3.8s2.4 1.5 3.9 1.5h6.6c1.5 0 2.8-.5 3.9-1.5s1.7-2.3 1.7-3.8v-6.6c0-1.5-.6-2.8-1.7-3.8m19.5 0c-1.1-1-2.4-1.5-3.9-1.5H110c-1.5 0-2.9.5-3.9 1.5-1.1 1-1.7 2.3-1.7 3.8v10.3c0 .4.1.8.3 1.1.2.3.7.5 1.1.5.4 0 .8-.2 1-.5.2-.3.3-.7.3-1.1V63.3c0-.7.3-1.3.8-1.9.6-.5 1.2-.8 2.1-.8h6.6c.9 0 1.5.3 2.1.8.6.5.8 1.1.8 1.9v10.3c0 .4.1.8.3 1.1.2.3.7.5 1.1.5.4 0 .8-.2 1-.5.2-.3.3-.7.3-1.1V63.3c.1-1.5-.5-2.8-1.6-3.8m-50.5 1.9c.6-.5 1.2-.8 2.1-.8h10.6c.4 0 .8-.1 1.1-.3.3-.2.5-.7.5-1.1 0-.4-.2-.8-.5-1-.3-.2-.7-.3-1.1-.3H72.2c-1.5 0-2.9.5-3.9 1.5-1.1 1-1.7 2.3-1.7 3.8v6.6c0 1.5.6 2.8 1.7 3.8s2.4 1.5 3.9 1.5h10.6c.4 0 .8-.1 1.1-.3.3-.2.5-.7.5-1.1 0-.4-.2-.8-.5-1-.3-.2-.7-.3-1.1-.3H72.2c-.9 0-1.5-.3-2.1-.8-.6-.6-.8-1.1-.8-1.9v-6.6c0-.6.2-1.2.8-1.7" fill="#3c3c3b"/><path d="M43.1 30.6c0 1.7-1.3 3-3 3s-3-1.3-3-3 1.3-3 3-3c1.6 0 3 1.3 3 3m0-9.2c0 1.7-1.3 3-3 3s-3-1.3-3-3 1.3-3 3-3c1.6 0 3 1.3 3 3m9.2 9.2c0 1.7-1.3 3-3 3s-3-1.3-3-3 1.3-3 3-3c1.6 0 3 1.3 3 3m0-9.2c0 1.7-1.3 3-3 3s-3-1.3-3-3 1.3-3 3-3c1.6 0 3 1.3 3 3" fill="#c74817"/><path d="M61.5 30.6c0 1.7-1.3 3-3 3s-3-1.3-3-3 1.3-3 3-3c1.6 0 3 1.3 3 3m0-9.2c0 1.7-1.3 3-3 3s-3-1.3-3-3 1.3-3 3-3c1.6 0 3 1.3 3 3m9.2 9.2c0 1.7-1.3 3-3 3s-3-1.3-3-3 1.3-3 3-3c1.6 0 3 1.3 3 3m0-9.2c0 1.7-1.3 3-3 3s-3-1.3-3-3 1.3-3 3-3c1.6 0 3 1.3 3 3" fill="#f7a840"/><path d="M61.5 12.2c0 1.7-1.3 3-3 3s-3-1.3-3-3 1.3-3 3-3c1.6 0 3 1.3 3 3m0-9.2c0 1.7-1.3 3-3 3s-3-1.3-3-3 1.3-3 3-3c1.6 0 3 1.3 3 3m9.2 9.2c0 1.7-1.3 3-3 3s-3-1.3-3-3 1.3-3 3-3c1.6 0 3 1.3 3 3m0-9.2c0 1.7-1.3 3-3 3s-3-1.3-3-3 1.3-3 3-3c1.6 0 3 1.3 3 3" fill="#3eac49"/><path d="M79.9 30.6c0 1.7-1.3 3-3 3s-3-1.3-3-3 1.3-3 3-3c1.6 0 3 1.3 3 3m0-9.2c0 1.7-1.3 3-3 3s-3-1.3-3-3 1.3-3 3-3c1.6 0 3 1.3 3 3m9.2 9.2c0 1.7-1.3 3-3 3s-3-1.3-3-3 1.3-3 3-3c1.6 0 3 1.3 3 3m0-9.2c0 1.7-1.3 3-3 3s-3-1.3-3-3 1.3-3 3-3c1.6 0 3 1.3 3 3" fill="#ea5643"/><path d="M61.5 49c0 1.7-1.3 3-3 3s-3-1.3-3-3 1.3-3 3-3c1.6 0 3 1.3 3 3m0-9.2c0 1.7-1.3 3-3 3s-3-1.3-3-3 1.3-3 3-3c1.6 0 3 1.3 3 3m9.2 9.2c0 1.7-1.3 3-3 3s-3-1.3-3-3 1.3-3 3-3c1.6 0 3 1.3 3 3m0-9.2c0 1.7-1.3 3-3 3s-3-1.3-3-3 1.3-3 3-3c1.6 0 3 1.3 3 3" fill="#00a6ce"/></svg>