<svg width="924" height="209" viewBox="0 0 924 209" fill="none" xmlns="http://www.w3.org/2000/svg">
<path d="M617.3 195.2C617.5 199.1 619.1 202.5 622 205C624.7 207.6 628.1 208.9 631.9 208.9H656.5C657.5 208.9 658.5 208.7 659.4 208.1C660.3 207.4 660.7 206.2 660.7 205.2C660.7 204.2 660.2 203 659.3 202.4C658.4 201.8 657.5 201.6 656.5 201.6H631.9C629.6 201.6 627.9 200.9 626.4 199.5C624.9 198 624.3 196.4 624.2 194.5V190H646.6C647.6 190 648.6 189.8 649.5 189.2C650.3 188.6 650.8 187.4 650.8 186.5V186.3C650.8 185.3 650.3 184.2 649.5 183.6C648.6 182.9 647.6 182.8 646.6 182.8H624.2V178.3C624.3 176.3 624.9 174.8 626.4 173.3C627.9 171.8 629.6 171.1 631.9 171.1H656.5C657.5 171.1 658.4 171 659.3 170.4C660.2 169.8 660.7 168.6 660.7 167.5C660.7 166.5 660.3 165.3 659.4 164.7C658.5 164 657.5 163.9 656.5 163.9H631.9C628.1 163.9 624.7 165.2 622 167.7C619.1 170.3 617.5 173.7 617.3 177.5V195.2Z" fill="#6D6F71"/>
<path d="M707.4 167.9C704.5 165.2 701 163.9 697.1 163.9H679.9C676 163.9 672.4 165.2 669.6 167.9C666.8 170.5 665.2 173.9 665.3 177.7V204.7C665.3 205.7 665.4 206.7 666 207.5C666.6 208.4 667.8 208.9 668.8 208.9C669.7 208.9 670.9 208.4 671.5 207.5C672 206.6 672.2 205.7 672.2 204.7V177.7C672.2 175.8 672.8 174.3 674.4 172.9C675.9 171.5 677.6 170.8 679.9 170.8H697.1C699.4 170.8 701.1 171.5 702.7 172.9C704.2 174.3 704.8 175.8 704.8 177.7V204.7C704.8 205.7 705 206.7 705.6 207.5C706.2 208.4 707.4 208.9 708.3 208.9H708.4C709.4 208.9 710.5 208.4 711 207.5C711.6 206.6 711.7 205.7 711.7 204.7V177.7C711.8 173.9 710.2 170.5 707.4 167.9V167.9Z" fill="#6D6F71"/>
<path d="M579 172.9C580.6 171.5 582.3 170.8 584.6 170.8H612.1C613.1 170.8 614 170.6 614.9 170C615.8 169.4 616.3 168.3 616.2 167.3C616.3 166.3 615.8 165.1 614.9 164.6C614 164 613.1 163.9 612.1 163.9H584.6C580.7 163.9 577.2 165.2 574.3 167.9C571.5 170.5 569.9 173.9 570 177.7V195C569.9 198.8 571.5 202.3 574.3 204.9C577.1 207.5 580.6 208.9 584.5 208.9H612.1C613.1 208.9 614 208.7 614.9 208.1C615.8 207.5 616.3 206.4 616.2 205.4C616.3 204.4 615.8 203.2 614.9 202.7C614 202.1 613.1 202 612.1 202H584.6C582.3 201.9 580.6 201.3 579 199.9C577.5 198.5 576.9 197 576.9 195V177.7C576.9 175.8 577.5 174.3 579 172.9V172.9Z" fill="#6D6F71"/>
<path d="M807.1 188.6C809.9 191.2 811.4 194.7 811.4 198.5V204.7C811.4 205.7 811.3 206.6 810.7 207.5C810.2 208.4 809.1 208.9 808.1 208.9H808C807 208.9 805.9 208.4 805.3 207.5C804.7 206.7 804.5 205.7 804.5 204.7V198.5C804.5 196.6 803.8 195.1 802.3 193.7C800.8 192.3 799.1 191.6 796.8 191.6H771.9V204.7C771.8 205.7 771.7 206.6 771.1 207.5C770.6 208.4 769.4 208.9 768.5 208.9C767.5 208.9 766.3 208.4 765.7 207.5C765.1 206.7 765 205.7 765 204.7V167.3C765 166.7 765.1 166.1 765.4 165.6C765.7 165.3 766 165 766.4 164.7C766.9 164.2 767.7 163.8 768.5 163.9H796.8C800.7 163.9 804.2 165.2 807.1 167.9C809.9 170.5 811.4 173.9 811.4 177.7C811.4 181.5 809.9 185 807.1 187.6C806.9 187.8 806.7 187.9 806.4 188.1C806.7 188.3 806.9 188.5 807.1 188.6V188.6ZM796.8 184.6C799.1 184.6 800.8 184 802.3 182.6C803.8 181.1 804.5 179.7 804.5 177.7C804.5 175.8 803.8 174.3 802.3 172.9C800.8 171.5 799.1 170.8 796.8 170.8H771.9V184.6H796.8Z" fill="#6D6F71"/>
<path d="M350 165.3C349.5 164.4 348.3 163.8 347.4 163.9C346.4 163.8 345.2 164.3 344.6 165.2C344 166.1 343.9 167.1 343.8 168.1V182.1H311.1V168.1C311.1 167.1 310.9 166.1 310.4 165.3C309.8 164.4 308.6 163.8 307.7 163.9C306.7 163.8 305.6 164.3 304.9 165.2C304.3 166.1 304.2 167.1 304.2 168.1V204.7C304.2 205.7 304.3 206.7 304.9 207.6C305.6 208.4 306.7 208.9 307.7 208.9H307.8C308.7 208.9 309.8 208.4 310.4 207.5C310.9 206.6 311.1 205.7 311.1 204.7V189.3H343.8V204.7C343.9 205.7 344 206.7 344.6 207.6C345.2 208.4 346.4 208.9 347.4 208.9H347.5C348.4 208.9 349.5 208.4 350 207.5C350.6 206.6 350.7 205.7 350.8 204.7V168.1C350.7 167.1 350.6 166.1 350 165.3V165.3Z" fill="#6D6F71"/>
<path d="M394.9 182.7H362.2V177.7C362.3 175.8 362.9 174.3 364.4 172.9C365.9 171.5 367.6 170.8 369.9 170.8H387.2C389.5 170.8 391.2 171.5 392.7 172.9C394.2 174.3 394.9 175.8 394.9 177.7V182.7ZM362.2 189.9H394.9V204.7C394.9 205.7 395 206.7 395.7 207.5C396.3 208.4 397.4 208.9 398.4 208.9H398.5C399.4 208.9 400.5 208.4 401.1 207.5C401.7 206.6 401.8 205.7 401.8 204.7V177.7C401.8 173.9 400.3 170.5 397.4 167.9C394.6 165.2 391.1 163.9 387.2 163.9H369.9C366 163.9 362.5 165.2 359.7 167.9C356.8 170.5 355.3 173.9 355.3 177.7V204.7C355.3 205.7 355.5 206.7 356.1 207.5C356.7 208.4 357.9 208.9 358.8 208.9C359.8 208.9 361 208.4 361.5 207.5C362.1 206.6 362.2 205.7 362.2 204.7V189.9Z" fill="#6D6F71"/>
<path d="M558.5 182.7H525.8V177.7C525.9 175.8 526.5 174.3 528 172.9C529.5 171.5 531.2 170.8 533.5 170.8H550.8C553.1 170.8 554.8 171.5 556.3 172.9C557.8 174.3 558.5 175.8 558.5 177.7V182.7ZM525.8 189.9H558.5V204.7C558.5 205.7 558.6 206.7 559.2 207.5C559.9 208.4 561 208.9 562 208.9H562.1C563 208.9 564.1 208.4 564.7 207.5C565.2 206.6 565.4 205.7 565.4 204.7V177.7C565.4 173.9 563.9 170.5 561 167.9C558.2 165.2 554.7 163.9 550.8 163.9H533.5C529.6 163.9 526.1 165.2 523.3 167.9C520.4 170.5 518.9 173.9 518.9 177.7V204.7C518.9 205.7 519.1 206.7 519.7 207.5C520.3 208.4 521.4 208.9 522.4 208.9C523.4 208.9 524.5 208.4 525.1 207.5C525.7 206.6 525.8 205.7 525.8 204.7V189.9Z" fill="#6D6F71"/>
<path d="M448.5 188.6C451.3 191.2 452.9 194.7 452.8 198.5V204.7C452.8 205.7 452.7 206.6 452.1 207.5C451.6 208.4 450.5 208.9 449.5 208.9H449.4C448.4 208.9 447.3 208.4 446.7 207.5C446.1 206.7 445.9 205.7 445.9 204.7V198.5C445.9 196.6 445.3 195.1 443.7 193.7C442.2 192.3 440.5 191.6 438.2 191.6H413.3V204.7C413.3 205.7 413.1 206.6 412.5 207.5C412 208.4 410.8 208.9 409.9 208.9C408.9 208.9 407.7 208.4 407.1 207.5C406.5 206.7 406.4 205.7 406.4 204.7V167.3C406.4 166.7 406.5 166.1 406.8 165.6C407.1 165.3 407.4 165 407.8 164.7C408.3 164.2 409.1 163.8 409.9 163.9H438.2C442.1 163.9 445.6 165.2 448.5 167.9C451.3 170.5 452.9 173.9 452.8 177.7C452.9 181.5 451.3 185 448.5 187.6C448.3 187.8 448.1 187.9 447.9 188.1C448.1 188.3 448.3 188.5 448.5 188.6V188.6ZM438.2 184.6C440.5 184.6 442.2 184 443.7 182.6C445.3 181.1 445.9 179.7 445.9 177.7C445.9 175.8 445.3 174.3 443.7 172.9C442.2 171.5 440.5 170.8 438.2 170.8H413.3V184.6H438.2Z" fill="#6D6F71"/>
<path d="M924 177.7C924 173.9 922.5 170.5 919.6 167.9C916.8 165.2 913.3 163.9 909.4 163.9H906.6C902 163.8 898.1 165.5 895.4 168.7C894.3 167.4 893 166.4 891.6 165.6C889.4 164.4 887 163.9 884.3 163.9H881.6C877.7 163.9 874.2 165.2 871.4 167.9C868.6 170.5 867 173.9 867 177.7V204.7C867 205.7 867.2 206.7 867.8 207.6C868.4 208.4 869.6 208.9 870.5 208.9C871.5 208.9 872.7 208.4 873.2 207.5C873.8 206.6 873.9 205.7 873.9 204.7V177.7C874 175.8 874.6 174.3 876.1 172.9C877.6 171.5 879.4 170.8 881.6 170.8H884.3C886.5 170.8 888.3 171.5 889.8 172.9C891.3 174.3 891.9 175.8 892 177.7V204.7C892 205.7 892.1 206.7 892.7 207.6C893.3 208.4 894.5 208.9 895.5 208.9C896.4 208.9 897.6 208.4 898.1 207.5C898.7 206.6 898.9 205.7 898.9 204.7V177.7C898.9 175.8 899.5 174.3 901.1 172.9C902.6 171.5 904.3 170.8 906.6 170.8H909.4C911.7 170.8 913.4 171.5 914.9 172.9C916.4 174.3 917 175.8 917.1 177.7V204.7C917.1 205.7 917.2 206.7 917.8 207.6C918.4 208.4 919.6 208.9 920.6 208.9H920.7C921.6 208.9 922.7 208.4 923.3 207.5C923.8 206.6 924 205.7 924 204.7V177.7Z" fill="#6D6F71"/>
<path d="M858.1 204.9C855.3 207.5 851.8 208.9 847.9 208.9H830.6C826.7 208.9 823.2 207.5 820.4 204.9C817.5 202.3 816 198.9 816 195V168.1C816 167.1 816.1 166.1 816.8 165.2C817.4 164.3 818.5 163.8 819.5 163.9C820.5 163.8 821.6 164.4 822.2 165.3C822.8 166.1 822.9 167.1 822.9 168.1V195C822.9 197 823.6 198.5 825.1 199.9C826.6 201.3 828.3 201.9 830.6 202H847.9C850.1 201.9 851.9 201.3 853.4 199.9C854.9 198.5 855.5 197 855.6 195V168.1C855.6 167.1 855.7 166.1 856.3 165.2C856.9 164.3 858.1 163.8 859.1 163.9H859.2C860.1 163.9 861.2 164.4 861.8 165.3C862.3 166.1 862.5 167.1 862.5 168.1V195C862.5 198.9 861 202.3 858.1 204.9Z" fill="#6D6F71"/>
<path d="M514.4 177.7C514.4 173.9 512.8 170.5 510 167.9C507.1 165.2 503.6 163.9 499.7 163.9H496.9C492.4 163.8 488.5 165.5 485.8 168.7C484.7 167.4 483.4 166.4 481.9 165.6C479.8 164.4 477.3 163.9 474.6 163.9H472C468.1 163.9 464.6 165.2 461.8 167.9C458.9 170.5 457.4 173.9 457.4 177.7V204.7C457.4 205.7 457.6 206.7 458.2 207.6C458.8 208.4 459.9 208.9 460.9 208.9C461.9 208.9 463 208.4 463.6 207.5C464.2 206.6 464.3 205.7 464.3 204.7V177.7C464.3 175.8 465 174.3 466.5 172.9C468 171.5 469.7 170.8 472 170.8H474.6C476.9 170.8 478.6 171.5 480.1 172.9C481.7 174.3 482.3 175.8 482.3 177.7V204.7C482.3 205.7 482.5 206.7 483.1 207.6C483.7 208.4 484.9 208.9 485.8 208.9C486.8 208.9 488 208.4 488.5 207.5C489.1 206.6 489.2 205.7 489.2 204.7V177.7C489.3 175.8 489.9 174.3 491.4 172.9C492.9 171.5 494.6 170.8 496.9 170.8H499.7C502 170.8 503.7 171.5 505.3 172.9C506.8 174.3 507.4 175.8 507.4 177.7V204.7C507.4 205.7 507.6 206.7 508.2 207.6C508.8 208.4 510 208.9 510.9 208.9H511C512 208.9 513.1 208.4 513.6 207.5C514.2 206.6 514.3 205.7 514.4 204.7V177.7Z" fill="#6D6F71"/>
<path d="M285 184.6C287.3 184.6 289 184 290.5 182.6C292 181.1 292.7 179.7 292.7 177.7C292.7 175.8 292 174.3 290.5 172.9C289 171.5 287.3 170.8 285 170.8H260.1V184.6H285ZM260.1 191.6V204.7C260 205.7 259.9 206.6 259.3 207.5C258.8 208.4 257.6 208.9 256.6 208.9C255.7 208.9 254.5 208.4 253.9 207.5C253.3 206.7 253.1 205.7 253.1 204.7V167.3C253.1 166.7 253.3 166.1 253.6 165.6C253.9 165.3 254.2 165 254.5 164.7C255.1 164.2 255.9 163.8 256.6 163.9H285C288.9 163.9 292.4 165.2 295.2 167.9C298.1 170.5 299.6 173.9 299.6 177.7C299.6 181.5 298.1 185 295.2 187.6C292.4 190.2 288.9 191.6 285 191.6H260.1Z" fill="#6D6F71"/>
<path d="M719 163.9C718 163.9 717.1 164 716.2 164.6C715.3 165.1 714.8 166.3 714.8 167.3C714.8 168.3 715.3 169.4 716.1 170C717 170.6 718 170.8 719 170.8H734.5V204.7C734.5 205.7 734.7 206.7 735.3 207.6C735.9 208.4 737 208.9 738 208.9H738.1C739.1 208.9 740.2 208.4 740.7 207.5C741.3 206.6 741.4 205.7 741.4 204.7V170.8H756.9C757.9 170.8 758.9 170.6 759.8 170C760.7 169.4 761.2 168.3 761.1 167.3C761.2 166.3 760.6 165.1 759.8 164.6C758.9 164 757.9 163.9 756.9 163.9H719Z" fill="#6D6F71"/>
<path d="M291.2 84.8H316.9L304.2 25.9H303.9L291.2 84.8ZM287.7 3.09998H320.3L355 134.2H327.5L321.4 106.5H286.6L280.6 134.2H253.1L287.7 3.09998Z" fill="#8AC750"/>
<path d="M389.8 62.4H401.5C411.9 62.4 419.1 56.2 419.1 42.8C419.1 29.7 413.9 22.6 400.7 22.6H389.8V62.4ZM363.4 3.09998H409.5C436.5 3.09998 445.4 22.7 445.4 42.4C445.4 69.6 428.8 81.9 403.9 81.9H389.8V134.2H363.4V3.09998Z" fill="#8AC750"/>
<path d="M632.2 3.09998V24.8H603.7V134.2H577.3V24.8H548.7V3.09998H632.2Z" fill="#8AC750"/>
<path d="M714.8 3.09998V24.8H668.1V55.6H712V77.3H668.1V112.6H716.6V134.2H641.7V3.09998H714.8Z" fill="#8AC750"/>
<path d="M753.2 3.09998V55.6H753.6L786.9 3.09998H815.5L780 59.3L819.5 134.2H789.8L762.9 80.4L753.2 95.3V134.2H726.8V3.09998H753.2Z" fill="#8AC750"/>
<path d="M860.3 84.8H885.9L873.3 25.9H872.9L860.3 84.8ZM856.8 3.09998H889.4L924 134.2H896.5L890.5 106.5H855.7L849.6 134.2H822.2L856.8 3.09998Z" fill="#8AC750"/>
<path d="M192.6 112.3C186 112.3 180.7 117.6 180.7 124.2C180.7 130.8 186 136.1 192.6 136.1C199.1 136.1 204.4 130.8 204.4 124.2C204.4 117.6 199.1 112.3 192.6 112.3Z" fill="#EE3F4B"/>
<path d="M192.6 75.9C186 75.9 180.7 81.2 180.7 87.8C180.7 94.3 186 99.7 192.6 99.7C199.1 99.7 204.4 94.3 204.4 87.8C204.4 81.2 199.1 75.9 192.6 75.9Z" fill="#EE3F4B"/>
<path d="M156.5 112.3C149.9 112.3 144.6 117.6 144.6 124.2C144.6 130.8 149.9 136.1 156.5 136.1C163 136.1 168.3 130.8 168.3 124.2C168.3 117.6 163 112.3 156.5 112.3Z" fill="#EE3F4B"/>
<path d="M156.5 75.9C149.9 75.9 144.6 81.2 144.6 87.8C144.6 94.3 149.9 99.7 156.5 99.7C163 99.7 168.3 94.3 168.3 87.8C168.3 81.2 163 75.9 156.5 75.9Z" fill="#EE3F4B"/>
<path d="M120.4 185.2C113.8 185.2 108.5 190.5 108.5 197.1C108.5 203.6 113.8 208.9 120.4 208.9C126.9 208.9 132.2 203.6 132.2 197.1C132.2 190.5 126.9 185.2 120.4 185.2Z" fill="#0AABCC"/>
<path d="M120.4 148.7C113.8 148.7 108.5 154.1 108.5 160.6C108.5 167.2 113.8 172.5 120.4 172.5C126.9 172.5 132.2 167.2 132.2 160.6C132.2 154.1 126.9 148.7 120.4 148.7V148.7Z" fill="#0AABCC"/>
<path d="M120.4 112.3C113.8 112.3 108.5 117.6 108.5 124.2C108.5 130.8 113.8 136.1 120.4 136.1C126.9 136.1 132.2 130.8 132.2 124.2C132.2 117.6 126.9 112.3 120.4 112.3Z" fill="#F9A74B"/>
<path d="M120.4 75.9C113.8 75.9 108.5 81.2 108.5 87.8C108.5 94.3 113.8 99.7 120.4 99.7C126.9 99.7 132.2 94.3 132.2 87.8C132.2 81.2 126.9 75.9 120.4 75.9Z" fill="#F9A74B"/>
<path d="M120.4 39.5C113.8 39.5 108.5 44.8 108.5 51.4C108.5 58 113.8 63.3 120.4 63.3C126.9 63.3 132.2 58 132.2 51.4C132.2 44.8 126.9 39.5 120.4 39.5Z" fill="#8AC750"/>
<path d="M120.4 3.09998C113.8 3.09998 108.5 8.39997 108.5 15C108.5 21.6 113.8 26.9 120.4 26.9C126.9 26.9 132.2 21.6 132.2 15C132.2 8.39997 126.9 3.09998 120.4 3.09998Z" fill="#8AC750"/>
<path d="M84.3 185.2C77.7 185.2 72.4 190.5 72.4 197.1C72.4 203.6 77.7 208.9 84.3 208.9C90.8 208.9 96.1 203.6 96.1 197.1C96.1 190.5 90.8 185.2 84.3 185.2Z" fill="#0AABCC"/>
<path d="M84.3 148.7C77.7 148.7 72.4 154.1 72.4 160.6C72.4 167.2 77.7 172.5 84.3 172.5C90.8 172.5 96.1 167.2 96.1 160.6C96.1 154.1 90.8 148.7 84.3 148.7V148.7Z" fill="#0AABCC"/>
<path d="M84.3 112.3C77.7 112.3 72.4 117.6 72.4 124.2C72.4 130.8 77.7 136.1 84.3 136.1C90.8 136.1 96.1 130.8 96.1 124.2C96.1 117.6 90.8 112.3 84.3 112.3Z" fill="#F9A74B"/>
<path d="M84.3 75.9C77.7 75.9 72.4 81.2 72.4 87.8C72.4 94.3 77.7 99.7 84.3 99.7C90.8 99.7 96.1 94.3 96.1 87.8C96.1 81.2 90.8 75.9 84.3 75.9Z" fill="#F9A74B"/>
<path d="M84.3 39.5C77.7 39.5 72.4 44.8 72.4 51.4C72.4 58 77.7 63.3 84.3 63.3C90.8 63.3 96.1 58 96.1 51.4C96.1 44.8 90.8 39.5 84.3 39.5Z" fill="#8AC750"/>
<path d="M84.3 3.09998C77.7 3.09998 72.4 8.39997 72.4 15C72.4 21.6 77.7 26.9 84.3 26.9C90.8 26.9 96.1 21.6 96.1 15C96.1 8.39997 90.8 3.09998 84.3 3.09998Z" fill="#8AC750"/>
<path d="M48.2 112.3C41.6 112.3 36.3 117.6 36.3 124.2C36.3 130.8 41.6 136.1 48.2 136.1C54.7 136.1 60 130.8 60 124.2C60 117.6 54.7 112.3 48.2 112.3Z" fill="#C74F27"/>
<path d="M48.2 75.9C41.6 75.9 36.3 81.2 36.3 87.8C36.3 94.3 41.6 99.7 48.2 99.7C54.7 99.7 60 94.3 60 87.8C60 81.2 54.7 75.9 48.2 75.9Z" fill="#C74F27"/>
<path d="M12.1 112.3C5.60002 112.3 0.200012 117.6 0.200012 124.2C0.200012 130.8 5.60002 136.1 12.1 136.1C18.6 136.1 23.9 130.8 23.9 124.2C23.9 117.6 18.6 112.3 12.1 112.3Z" fill="#C74F27"/>
<path d="M12.1 75.9C5.60002 75.9 0.200012 81.2 0.200012 87.8C0.200012 94.3 5.60002 99.7 12.1 99.7C18.6 99.7 23.9 94.3 23.9 87.8C23.9 81.2 18.6 75.9 12.1 75.9Z" fill="#C74F27"/>
<path d="M498.6 117.3C514.1 117.3 516.7 103.9 516.7 68.7C516.7 33.6 514.1 20 498.6 20C483 20 480.4 33.6 480.4 68.7C480.4 103.9 483 117.3 498.6 117.3ZM498.6 0.5C538.1 0.5 543.1 28.8 543.1 68.7C543.1 108.5 538.1 136.8 498.6 136.8C459 136.8 454.1 108.5 454.1 68.7C454.1 28.8 459 0.5 498.6 0.5V0.5Z" fill="#8AC750"/>
</svg>
