<svg width="50" height="50" viewBox="0 0 50 50" fill="none" xmlns="http://www.w3.org/2000/svg">
<path d="M25.6625 37.8625C22.6 36.9125 16.8625 34 12.5625 25.1625C8.27501 16.325 9.7375 9.91251 10.9125 6.98751C11.325 5.92501 12.3875 5.23751 13.5375 5.30001C14.05 5.28751 14.5625 5.40001 15.025 5.63751C16.825 6.66251 17.4 9.63751 16.6125 14.05L14.725 14.8375C14.6625 14.8625 14.6 14.9 14.5375 14.95C14.2625 15.175 11.925 17.325 14.6875 24.15C17.4125 29.475 20.225 30.05 21.275 30.05C21.4375 30.05 21.6 30.0375 21.75 30C21.8125 29.9875 21.875 29.9625 21.9375 29.925L23.7625 28.9875C27.675 31.2 29.6375 33.5125 29.3 35.5375C29.0125 36.8875 27.875 37.8875 26.5125 38.0125C26.225 38 25.9375 37.95 25.6625 37.8625ZM9.47501 6.43751C8.20001 9.60001 6.7375 16.4375 11.175 25.8875C15.7375 35.275 21.9375 38.3875 25.225 39.425C25.65 39.5625 26.0875 39.625 26.5375 39.625C27.5625 39.6125 28.55 39.225 29.3 38.5375C29.35 38.5375 29.3875 38.5375 29.4375 38.5375C31.975 38.025 32.9 39.325 34.3375 41.7C35.5875 43.7375 37.1375 46.2625 40.7375 46.2625H41.075C41.5125 46.25 41.85 45.875 41.8375 45.4375C41.825 45 41.45 44.6625 41.0125 44.675L40.9875 44.6C38.0625 44.725 36.9625 42.9125 35.675 40.8C34.5375 38.9375 33.25 36.85 30.55 36.85C30.7 36.525 30.8125 36.1875 30.8875 35.825C31.225 33.825 30.3125 30.75 24.15 27.4625C23.925 27.3375 23.65 27.3375 23.4125 27.4625L21.3375 28.5375C20.8375 28.5375 18.5875 28.3375 16.1375 23.5625C14.075 18.4875 15.2625 16.625 15.5125 16.3L17.6375 15.3625C17.875 15.2625 18.05 15.0375 18.1 14.7875C19.425 7.92501 17.6 5.28751 15.85 4.28751C15.125 3.92501 14.35 3.73751 13.5625 3.75001C13.5 3.75001 13.4375 3.75001 13.375 3.75001C11.65 3.75001 10.0875 4.81251 9.47501 6.43751Z" fill="url(#paint0_linear)"/>
<defs>
<linearGradient id="paint0_linear" x1="8.17947" y1="25.0071" x2="41.8354" y2="25.0071" gradientUnits="userSpaceOnUse">
<stop stop-color="#3EAC49"/>
<stop offset="1" stop-color="#3C9EA8"/>
</linearGradient>
</defs>
</svg>
