<svg xmlns="http://www.w3.org/2000/svg" xmlns:xlink="http://www.w3.org/1999/xlink" viewBox="0 0 29.2 29.1" enable-background="new 0 0 29.2 29.1"><defs><path id="a" d="M-.8-3.2h30v35.6h-30z"/></defs><clipPath id="b"><use xlink:href="#a" overflow="visible"/></clipPath><g clip-path="url(#b)"><defs><path id="c" d="M-.8-3.2h30v35.6h-30z"/></defs><clipPath id="e"><use xlink:href="#c" overflow="visible"/></clipPath><defs><filter id="d" filterUnits="userSpaceOnUse" x="-.8" y="-3.2" width="30" height="35.6"><feColorMatrix values="-1 0 0 0 1 0 -1 0 0 1 0 0 -1 0 1 0 0 0 1 0" color-interpolation-filters="sRGB" result="source"/></filter></defs><mask maskUnits="userSpaceOnUse" x="-.8" y="-3.2" width="30" height="35.6" id="h"><g filter="url(#d)"><defs><path id="f" d="M.2.1h28.6v29H.2z"/></defs><clipPath id="g" clip-path="url(#e)"><use xlink:href="#f" overflow="visible"/></clipPath><path d="M12.9 26.7L8.2 22l6-6 4.7 4.7c1.6 1.6 1.6 4.3 0 6-.8.8-1.9 1.2-3 1.2s-2.2-.4-3-1.2M2.6 16.4c-.8-.8-1.2-1.9-1.2-3 0-2.3 1.9-4.2 4.2-4.2 1.1 0 2.2.4 3 1.2l4.8 4.7-6 6-4.8-4.7zm-.8-6.8c-2.1 2.1-2.1 5.5 0 7.6l10.3 10.3c2.1 2.1 5.5 2.1 7.6 0 2.1-2.1 2.1-5.5 0-7.6L9.4 9.6C8.3 8.6 7 8 5.6 8s-2.8.6-3.8 1.6m12.4 1L27.5 7c.6 3.5-1.5 7-5 7.9-.6.2-1.2.2-1.8.2-2.8 0-5.5-1.7-6.5-4.5m4.7-9.1c3.5-.9 7.1.9 8.3 4.3L13.9 9.4c-.6-3.5 1.5-6.9 5-7.9M18.6.4c-4.3 1.1-6.9 5.6-5.7 9.9 1.1 4.3 5.6 6.9 9.9 5.7 4.3-1.2 6.8-5.6 5.7-9.9-1-3.6-4.2-6-7.8-6-.7 0-1.4.1-2.1.3" clip-path="url(#g)"/></g></mask><g clip-path="url(#e)" mask="url(#h)"><defs><path id="i" d="M-.8-3.2h30v35.6h-30z"/></defs><clipPath id="j"><use xlink:href="#i" overflow="visible"/></clipPath><g clip-path="url(#j)"><defs><path id="k" d="M-.8-3.2h30v35.6h-30z"/></defs><clipPath id="l"><use xlink:href="#k" overflow="visible"/></clipPath><linearGradient id="m" gradientUnits="userSpaceOnUse" x1="-.817" y1="32.398" x2=".183" y2="32.398" gradientTransform="translate(23.731 -958.916) scale(30.0484)"><stop offset="0" stop-color="#40ac49"/><stop offset="1" stop-color="#00aad0"/></linearGradient><path clip-path="url(#l)" fill="url(#m)" d="M-.8-3.2h30v35.6h-30z"/></g></g></g></svg>